<?xml version="1.0" standalone="no"?>
<!DOCTYPE svg PUBLIC "-//W3C//DTD SVG 20010904//EN"
 "http://www.w3.org/TR/2001/REC-SVG-20010904/DTD/svg10.dtd">
<svg version="1.0" xmlns="http://www.w3.org/2000/svg"
 width="700.000000pt" height="700.000000pt" viewBox="0 0 700.000000 700.000000"
 preserveAspectRatio="xMidYMid meet">
<metadata>
Created by potrace 1.14, written by Peter Selinger 2001-2017
</metadata>
<g transform="translate(0.000000,700.000000) scale(0.100000,-0.100000)"
fill="#000000" stroke="none">
<path d="M2088 5905 c-2 -1 -32 -5 -68 -8 -36 -4 -75 -8 -86 -11 -12 -2 -37
-7 -55 -10 -176 -29 -382 -123 -538 -244 -217 -170 -401 -415 -560 -746 -34
-69 -61 -129 -61 -132 0 -3 -9 -24 -19 -47 -33 -74 -134 -349 -145 -397 -2 -8
-20 -69 -40 -135 -80 -261 -201 -800 -231 -1025 -3 -25 -8 -52 -11 -61 -4 -16
-8 -45 -19 -155 -3 -28 -7 -60 -10 -72 -27 -143 -27 -702 0 -867 3 -16 8 -46
11 -65 28 -177 104 -377 195 -511 53 -79 176 -190 256 -231 228 -120 459 -124
710 -12 164 72 400 275 593 509 235 285 407 383 809 460 13 2 49 7 80 11 31 3
64 8 74 10 100 18 710 26 922 11 192 -13 396 -48 522 -88 223 -72 360 -170
553 -399 138 -163 238 -264 360 -364 96 -78 246 -159 360 -195 293 -93 615 -1
818 233 102 118 167 250 216 438 41 158 51 265 51 543 0 198 -7 347 -20 430
-2 17 -7 53 -10 80 -16 140 -75 495 -100 603 -8 34 -17 77 -20 95 -3 17 -17
82 -31 142 -14 61 -27 117 -29 125 -2 8 -19 78 -39 155 -135 519 -307 939
-508 1241 -100 149 -131 187 -248 304 -313 311 -726 438 -1189 365 -41 -6
-201 -47 -338 -85 -116 -33 -305 -75 -373 -84 -45 -7 -102 -13 -175 -21 -53
-6 -339 -6 -390 0 -180 19 -176 19 -290 41 -44 9 -120 27 -170 40 -212 58
-395 103 -461 114 -62 10 -288 22 -296 15z m267 -454 c48 -10 112 -26 275 -71
193 -53 389 -94 505 -107 28 -3 79 -9 115 -13 67 -9 489 -6 550 4 19 3 55 8
80 11 70 9 169 26 225 39 11 2 43 9 70 16 28 6 131 33 230 60 251 68 319 80
450 75 237 -8 413 -78 581 -230 308 -278 568 -873 748 -1715 26 -119 28 -129
45 -220 6 -30 13 -66 16 -80 6 -30 41 -241 54 -330 6 -36 13 -94 17 -130 3
-36 8 -72 9 -81 15 -78 22 -457 10 -556 -3 -26 -8 -68 -11 -93 -13 -116 -67
-271 -118 -343 -90 -126 -234 -182 -372 -142 -159 45 -305 164 -541 440 -227
266 -378 378 -668 495 -84 34 -309 90 -425 105 -30 4 -71 9 -90 11 -255 34
-823 38 -1145 8 -244 -22 -497 -78 -655 -146 -254 -108 -429 -242 -626 -481
-317 -383 -544 -508 -749 -413 -65 30 -115 82 -158 164 -34 65 -70 171 -82
241 -3 19 -8 37 -10 40 -2 4 -6 35 -9 71 -4 36 -9 83 -12 105 -4 22 -6 112 -6
200 0 149 4 229 17 380 9 96 55 411 75 515 11 52 22 110 25 129 3 19 8 38 10
41 3 4 7 25 11 46 19 125 140 575 209 776 228 666 502 1033 856 1149 133 44
362 58 494 30z"/>
<path d="M2105 4796 c-49 -21 -91 -63 -114 -111 -20 -42 -21 -61 -21 -285 0
-185 -3 -240 -12 -241 -7 0 -119 -2 -248 -3 -216 -2 -238 -4 -275 -23 -162
-84 -161 -309 0 -389 52 -25 57 -25 292 -27 l238 -2 5 -250 c5 -271 7 -279 66
-339 41 -40 79 -57 138 -61 88 -6 167 40 209 120 20 37 21 57 23 280 1 132 3
243 3 247 1 4 108 7 239 7 260 0 280 3 346 61 112 99 77 296 -64 358 -28 13
-82 16 -272 17 -131 1 -241 4 -244 8 -4 4 -8 114 -9 244 -1 256 -5 279 -57
335 -59 62 -169 87 -243 54z"/>
<path d="M4473 4783 c-118 -60 -175 -189 -141 -320 15 -62 75 -133 138 -166
230 -117 481 129 369 361 -65 133 -234 191 -366 125z"/>
<path d="M3914 4199 c-67 -19 -127 -71 -162 -139 -32 -61 -34 -69 -29 -138 11
-152 117 -253 267 -255 195 -3 326 190 254 371 -52 129 -197 200 -330 161z"/>
<path d="M5120 4201 c-52 -17 -89 -42 -129 -87 -120 -137 -73 -351 95 -425
181 -81 388 59 380 257 -4 102 -60 190 -150 236 -44 23 -153 33 -196 19z"/>
<path d="M4502 3591 c-144 -51 -218 -221 -159 -363 22 -52 81 -113 132 -137
184 -86 389 43 389 244 -1 56 -6 80 -27 121 -64 126 -204 182 -335 135z"/>
</g>
</svg>
